<mxfile host="Electron" agent="Mozilla/5.0 (Windows NT 10.0; Win64; x64) AppleWebKit/537.36 (KHTML, like Gecko) draw.io/28.0.6 Chrome/138.0.7204.100 Electron/37.2.3 Safari/537.36" version="28.0.6">
  <diagram name="Fetch Stage" id="xJ02Gpl6vORc2wXBNX6f">
    <mxGraphModel dx="2211" dy="1414" grid="1" gridSize="10" guides="1" tooltips="1" connect="1" arrows="1" fold="1" page="1" pageScale="1" pageWidth="827" pageHeight="1169" math="0" shadow="0">
      <root>
        <mxCell id="0" />
        <mxCell id="1" parent="0" />
        <mxCell id="Xw53oJ9WX84hQ0q4KHC2-78" value="&lt;font style=&quot;font-size: 32px;&quot;&gt;Regfile&lt;/font&gt;" style="whiteSpace=wrap;html=1;aspect=fixed;" vertex="1" parent="1">
          <mxGeometry x="400" y="360" width="320" height="320" as="geometry" />
        </mxCell>
        <mxCell id="Xw53oJ9WX84hQ0q4KHC2-63" value="RAM" style="rounded=1;whiteSpace=wrap;html=1;fontSize=20;" vertex="1" parent="1">
          <mxGeometry x="4120" y="300" width="180" height="410" as="geometry" />
        </mxCell>
        <mxCell id="Xw53oJ9WX84hQ0q4KHC2-65" value="Instruction Memory (ROM)" style="rounded=1;whiteSpace=wrap;html=1;fillColor=#ffffff;strokeColor=#000000;strokeWidth=2;fontSize=12;fontStyle=1;" vertex="1" parent="1">
          <mxGeometry x="-310" y="300" width="220" height="420" as="geometry" />
        </mxCell>
        <mxCell id="Xw53oJ9WX84hQ0q4KHC2-66" value="PC" style="rounded=1;whiteSpace=wrap;html=1;fillColor=#ffffff;strokeColor=#000000;strokeWidth=2;fontSize=12;fontStyle=1;" vertex="1" parent="1">
          <mxGeometry x="-240" y="800" width="80" height="60" as="geometry" />
        </mxCell>
        <mxCell id="Xw53oJ9WX84hQ0q4KHC2-67" value="Fetch" style="text;html=1;strokeColor=#ff0000;fillColor=none;align=center;verticalAlign=middle;whiteSpace=wrap;rounded=0;fontSize=24;fontStyle=1;" vertex="1" parent="1">
          <mxGeometry x="-480" y="1090" width="170" height="70" as="geometry" />
        </mxCell>
        <mxCell id="Xw53oJ9WX84hQ0q4KHC2-68" value="" style="endArrow=none;html=1;strokeColor=#ff0000;strokeWidth=4;" edge="1" parent="1">
          <mxGeometry width="50" height="50" relative="1" as="geometry">
            <mxPoint x="-40" y="120" as="sourcePoint" />
            <mxPoint x="-40" y="1080" as="targetPoint" />
          </mxGeometry>
        </mxCell>
        <mxCell id="Xw53oJ9WX84hQ0q4KHC2-69" value="" style="endArrow=none;html=1;strokeColor=default;strokeWidth=2;exitX=0.989;exitY=0.526;exitDx=0;exitDy=0;exitPerimeter=0;rounded=0;curved=1;endFill=0;" edge="1" parent="1">
          <mxGeometry width="50" height="50" relative="1" as="geometry">
            <mxPoint x="-89.42000000000007" y="520.9200000000001" as="sourcePoint" />
            <mxPoint x="173" y="520" as="targetPoint" />
            <Array as="points">
              <mxPoint x="-37" y="520" />
            </Array>
          </mxGeometry>
        </mxCell>
        <mxCell id="Xw53oJ9WX84hQ0q4KHC2-70" value="" style="endArrow=classic;html=1;rounded=0;" edge="1" parent="1">
          <mxGeometry width="50" height="50" relative="1" as="geometry">
            <mxPoint x="-200.48" y="800" as="sourcePoint" />
            <mxPoint x="-200.48" y="720" as="targetPoint" />
          </mxGeometry>
        </mxCell>
        <mxCell id="Xw53oJ9WX84hQ0q4KHC2-71" value="" style="endArrow=none;html=1;rounded=0;" edge="1" parent="1">
          <mxGeometry width="50" height="50" relative="1" as="geometry">
            <mxPoint x="-320" y="760" as="sourcePoint" />
            <mxPoint x="-200" y="760" as="targetPoint" />
          </mxGeometry>
        </mxCell>
        <mxCell id="Xw53oJ9WX84hQ0q4KHC2-72" value="" style="endArrow=none;html=1;rounded=0;" edge="1" parent="1">
          <mxGeometry width="50" height="50" relative="1" as="geometry">
            <mxPoint x="-320" y="960" as="sourcePoint" />
            <mxPoint x="-320" y="760" as="targetPoint" />
          </mxGeometry>
        </mxCell>
        <mxCell id="Xw53oJ9WX84hQ0q4KHC2-73" value="" style="endArrow=none;html=1;rounded=0;" edge="1" parent="1">
          <mxGeometry width="50" height="50" relative="1" as="geometry">
            <mxPoint x="-320" y="960" as="sourcePoint" />
            <mxPoint x="1080" y="960" as="targetPoint" />
          </mxGeometry>
        </mxCell>
        <mxCell id="Xw53oJ9WX84hQ0q4KHC2-75" value="" style="endArrow=classic;html=1;rounded=0;" edge="1" parent="1" target="Xw53oJ9WX84hQ0q4KHC2-76">
          <mxGeometry width="50" height="50" relative="1" as="geometry">
            <mxPoint x="170" y="520" as="sourcePoint" />
            <mxPoint x="240" y="120" as="targetPoint" />
            <Array as="points">
              <mxPoint x="170" y="120" />
            </Array>
          </mxGeometry>
        </mxCell>
        <mxCell id="Xw53oJ9WX84hQ0q4KHC2-76" value="&lt;font style=&quot;font-size: 23px;&quot;&gt;Control_Unit&lt;/font&gt;" style="rounded=1;whiteSpace=wrap;html=1;" vertex="1" parent="1">
          <mxGeometry x="241" y="80" width="1000" height="80" as="geometry" />
        </mxCell>
        <mxCell id="Xw53oJ9WX84hQ0q4KHC2-74" value="" style="endArrow=none;html=1;strokeColor=#ff0000;strokeWidth=4;" edge="1" parent="1">
          <mxGeometry width="50" height="50" relative="1" as="geometry">
            <mxPoint x="920" y="190" as="sourcePoint" />
            <mxPoint x="920" y="1040" as="targetPoint" />
          </mxGeometry>
        </mxCell>
        <mxCell id="Xw53oJ9WX84hQ0q4KHC2-79" value="RA2" style="endArrow=classic;html=1;rounded=0;entryX=0;entryY=0.5;entryDx=0;entryDy=0;fontSize=16;" edge="1" parent="1" target="Xw53oJ9WX84hQ0q4KHC2-78">
          <mxGeometry x="1" y="20" width="50" height="50" relative="1" as="geometry">
            <mxPoint x="170" y="520" as="sourcePoint" />
            <mxPoint x="370" y="520" as="targetPoint" />
            <mxPoint x="20" y="20" as="offset" />
          </mxGeometry>
        </mxCell>
        <mxCell id="Xw53oJ9WX84hQ0q4KHC2-80" value="" style="endArrow=none;html=1;rounded=0;endFill=0;" edge="1" parent="1">
          <mxGeometry width="50" height="50" relative="1" as="geometry">
            <mxPoint x="280" y="600" as="sourcePoint" />
            <mxPoint x="280" y="440" as="targetPoint" />
          </mxGeometry>
        </mxCell>
        <mxCell id="Xw53oJ9WX84hQ0q4KHC2-81" value="RA1" style="endArrow=classic;html=1;rounded=0;entryX=0.001;entryY=0.062;entryDx=0;entryDy=0;entryPerimeter=0;fontSize=16;" edge="1" parent="1">
          <mxGeometry x="1" y="-20" width="50" height="50" relative="1" as="geometry">
            <mxPoint x="279.68" y="440.15999999999997" as="sourcePoint" />
            <mxPoint x="399.9999999999997" y="440.0000000000001" as="targetPoint" />
            <mxPoint x="20" y="-20" as="offset" />
          </mxGeometry>
        </mxCell>
        <mxCell id="Xw53oJ9WX84hQ0q4KHC2-83" value="WA" style="endArrow=classic;html=1;rounded=0;entryX=0;entryY=0.75;entryDx=0;entryDy=0;fontSize=16;" edge="1" parent="1" target="Xw53oJ9WX84hQ0q4KHC2-78">
          <mxGeometry x="1" y="20" width="50" height="50" relative="1" as="geometry">
            <mxPoint x="280" y="600" as="sourcePoint" />
            <mxPoint x="330" y="550" as="targetPoint" />
            <mxPoint x="20" y="20" as="offset" />
          </mxGeometry>
        </mxCell>
        <mxCell id="Xw53oJ9WX84hQ0q4KHC2-84" value="WD" style="endArrow=classic;html=1;rounded=0;fontSize=16;" edge="1" parent="1">
          <mxGeometry x="1" y="20" width="50" height="50" relative="1" as="geometry">
            <mxPoint x="320" y="640" as="sourcePoint" />
            <mxPoint x="400" y="640" as="targetPoint" />
            <mxPoint x="20" y="20" as="offset" />
          </mxGeometry>
        </mxCell>
        <mxCell id="Xw53oJ9WX84hQ0q4KHC2-86" value="" style="endArrow=none;html=1;rounded=0;" edge="1" parent="1" target="Xw53oJ9WX84hQ0q4KHC2-78">
          <mxGeometry width="50" height="50" relative="1" as="geometry">
            <mxPoint x="400" y="640" as="sourcePoint" />
            <mxPoint x="450" y="590" as="targetPoint" />
          </mxGeometry>
        </mxCell>
        <mxCell id="Xw53oJ9WX84hQ0q4KHC2-87" value="" style="endArrow=none;html=1;rounded=0;" edge="1" parent="1">
          <mxGeometry width="50" height="50" relative="1" as="geometry">
            <mxPoint x="320" y="720" as="sourcePoint" />
            <mxPoint x="320" y="640" as="targetPoint" />
          </mxGeometry>
        </mxCell>
        <mxCell id="Xw53oJ9WX84hQ0q4KHC2-88" value="" style="endArrow=none;html=1;rounded=0;" edge="1" parent="1" source="Xw53oJ9WX84hQ0q4KHC2-203">
          <mxGeometry width="50" height="50" relative="1" as="geometry">
            <mxPoint x="320" y="720" as="sourcePoint" />
            <mxPoint x="1730" y="720" as="targetPoint" />
          </mxGeometry>
        </mxCell>
        <mxCell id="Xw53oJ9WX84hQ0q4KHC2-89" value="regfileWe" style="endArrow=classic;html=1;rounded=0;fontSize=18;" edge="1" parent="1" target="Xw53oJ9WX84hQ0q4KHC2-78">
          <mxGeometry x="-1" y="-20" width="50" height="50" relative="1" as="geometry">
            <mxPoint x="560" y="160" as="sourcePoint" />
            <mxPoint x="610" y="110" as="targetPoint" />
            <mxPoint x="20" y="-20" as="offset" />
          </mxGeometry>
        </mxCell>
        <mxCell id="Xw53oJ9WX84hQ0q4KHC2-90" value="" style="endArrow=classic;html=1;rounded=0;entryX=0.083;entryY=0.149;entryDx=0;entryDy=0;entryPerimeter=0;" edge="1" parent="1" target="Xw53oJ9WX84hQ0q4KHC2-124">
          <mxGeometry width="50" height="50" relative="1" as="geometry">
            <mxPoint x="720" y="440" as="sourcePoint" />
            <mxPoint x="1020" y="440" as="targetPoint" />
          </mxGeometry>
        </mxCell>
        <mxCell id="Xw53oJ9WX84hQ0q4KHC2-91" value="" style="endArrow=classic;html=1;rounded=0;entryX=0.387;entryY=0.968;entryDx=0;entryDy=0;entryPerimeter=0;" edge="1" parent="1" target="Xw53oJ9WX84hQ0q4KHC2-119">
          <mxGeometry width="50" height="50" relative="1" as="geometry">
            <mxPoint x="720" y="560" as="sourcePoint" />
            <mxPoint x="960" y="560" as="targetPoint" />
          </mxGeometry>
        </mxCell>
        <mxCell id="Xw53oJ9WX84hQ0q4KHC2-100" value="" style="whiteSpace=wrap;html=1;aspect=fixed;" vertex="1" parent="1">
          <mxGeometry x="810" y="410" width="70" height="70" as="geometry" />
        </mxCell>
        <mxCell id="Xw53oJ9WX84hQ0q4KHC2-101" value="" style="triangle;whiteSpace=wrap;html=1;rotation=90;" vertex="1" parent="1">
          <mxGeometry x="825.32" y="409.69" width="8.12" height="8.75" as="geometry" />
        </mxCell>
        <mxCell id="Xw53oJ9WX84hQ0q4KHC2-102" value="" style="whiteSpace=wrap;html=1;aspect=fixed;" vertex="1" parent="1">
          <mxGeometry x="810" y="530.31" width="70" height="70" as="geometry" />
        </mxCell>
        <mxCell id="Xw53oJ9WX84hQ0q4KHC2-103" value="" style="triangle;whiteSpace=wrap;html=1;rotation=90;" vertex="1" parent="1">
          <mxGeometry x="825.32" y="530" width="8.12" height="8.75" as="geometry" />
        </mxCell>
        <mxCell id="Xw53oJ9WX84hQ0q4KHC2-104" value="" style="endArrow=classic;html=1;rounded=0;entryX=1.044;entryY=0.632;entryDx=0;entryDy=0;entryPerimeter=0;" edge="1" parent="1" target="Xw53oJ9WX84hQ0q4KHC2-66">
          <mxGeometry width="50" height="50" relative="1" as="geometry">
            <mxPoint x="950" y="840" as="sourcePoint" />
            <mxPoint x="-100.00000000000045" y="840" as="targetPoint" />
          </mxGeometry>
        </mxCell>
        <mxCell id="Xw53oJ9WX84hQ0q4KHC2-106" value="" style="whiteSpace=wrap;html=1;aspect=fixed;" vertex="1" parent="1">
          <mxGeometry x="950" y="800.31" width="70" height="70" as="geometry" />
        </mxCell>
        <mxCell id="Xw53oJ9WX84hQ0q4KHC2-107" value="" style="triangle;whiteSpace=wrap;html=1;rotation=90;" vertex="1" parent="1">
          <mxGeometry x="965.32" y="800" width="8.12" height="8.75" as="geometry" />
        </mxCell>
        <mxCell id="Xw53oJ9WX84hQ0q4KHC2-108" value="" style="endArrow=classic;html=1;rounded=0;entryX=1;entryY=0.5;entryDx=0;entryDy=0;" edge="1" parent="1">
          <mxGeometry width="50" height="50" relative="1" as="geometry">
            <mxPoint x="1090" y="839.71" as="sourcePoint" />
            <mxPoint x="1020" y="839.31" as="targetPoint" />
          </mxGeometry>
        </mxCell>
        <mxCell id="Xw53oJ9WX84hQ0q4KHC2-109" value="0&lt;div&gt;1&lt;/div&gt;" style="shape=trapezoid;perimeter=trapezoidPerimeter;whiteSpace=wrap;html=1;fixedSize=1;rotation=-90;textDirection=vertical-lr;" vertex="1" parent="1">
          <mxGeometry x="1059.5" y="831" width="80" height="29" as="geometry" />
        </mxCell>
        <mxCell id="Xw53oJ9WX84hQ0q4KHC2-111" value="" style="endArrow=classic;html=1;rounded=0;" edge="1" parent="1">
          <mxGeometry width="50" height="50" relative="1" as="geometry">
            <mxPoint x="1160" y="865" as="sourcePoint" />
            <mxPoint x="1114" y="865.31" as="targetPoint" />
          </mxGeometry>
        </mxCell>
        <mxCell id="Xw53oJ9WX84hQ0q4KHC2-112" value="" style="endArrow=classic;html=1;rounded=0;" edge="1" parent="1">
          <mxGeometry width="50" height="50" relative="1" as="geometry">
            <mxPoint x="1160" y="820.79" as="sourcePoint" />
            <mxPoint x="1114" y="821.0999999999999" as="targetPoint" />
          </mxGeometry>
        </mxCell>
        <mxCell id="Xw53oJ9WX84hQ0q4KHC2-113" value="" style="endArrow=none;html=1;rounded=0;" edge="1" parent="1">
          <mxGeometry width="50" height="50" relative="1" as="geometry">
            <mxPoint x="1160" y="920" as="sourcePoint" />
            <mxPoint x="1160" y="864.31" as="targetPoint" />
          </mxGeometry>
        </mxCell>
        <mxCell id="Xw53oJ9WX84hQ0q4KHC2-114" value="" style="endArrow=none;html=1;rounded=0;" edge="1" parent="1">
          <mxGeometry width="50" height="50" relative="1" as="geometry">
            <mxPoint x="1160" y="821.69" as="sourcePoint" />
            <mxPoint x="1160" y="780" as="targetPoint" />
          </mxGeometry>
        </mxCell>
        <mxCell id="Xw53oJ9WX84hQ0q4KHC2-115" value="" style="endArrow=none;html=1;rounded=0;" edge="1" parent="1">
          <mxGeometry width="50" height="50" relative="1" as="geometry">
            <mxPoint x="1200" y="920" as="sourcePoint" />
            <mxPoint x="1160" y="920" as="targetPoint" />
          </mxGeometry>
        </mxCell>
        <mxCell id="Xw53oJ9WX84hQ0q4KHC2-116" value="" style="endArrow=none;html=1;rounded=0;exitX=1;exitY=0.5;exitDx=0;exitDy=0;" edge="1" parent="1" source="Xw53oJ9WX84hQ0q4KHC2-133">
          <mxGeometry width="50" height="50" relative="1" as="geometry">
            <mxPoint x="1200" y="760" as="sourcePoint" />
            <mxPoint x="1160" y="780" as="targetPoint" />
          </mxGeometry>
        </mxCell>
        <mxCell id="Xw53oJ9WX84hQ0q4KHC2-123" style="edgeStyle=orthogonalEdgeStyle;rounded=0;orthogonalLoop=1;jettySize=auto;html=1;" edge="1" parent="1" source="Xw53oJ9WX84hQ0q4KHC2-119">
          <mxGeometry relative="1" as="geometry">
            <mxPoint x="1030" y="570" as="targetPoint" />
          </mxGeometry>
        </mxCell>
        <mxCell id="Xw53oJ9WX84hQ0q4KHC2-119" value="0&lt;div&gt;1&lt;/div&gt;" style="shape=trapezoid;perimeter=trapezoidPerimeter;whiteSpace=wrap;html=1;fixedSize=1;rotation=90;textDirection=vertical-lr;" vertex="1" parent="1">
          <mxGeometry x="930" y="555" width="100" height="30" as="geometry" />
        </mxCell>
        <mxCell id="Xw53oJ9WX84hQ0q4KHC2-121" value="" style="endArrow=classic;html=1;rounded=0;" edge="1" parent="1">
          <mxGeometry width="50" height="50" relative="1" as="geometry">
            <mxPoint x="900" y="600" as="sourcePoint" />
            <mxPoint x="965.3199999999999" y="600.31" as="targetPoint" />
          </mxGeometry>
        </mxCell>
        <mxCell id="Xw53oJ9WX84hQ0q4KHC2-122" value="" style="endArrow=none;html=1;rounded=0;" edge="1" parent="1">
          <mxGeometry width="50" height="50" relative="1" as="geometry">
            <mxPoint x="900" y="720" as="sourcePoint" />
            <mxPoint x="900" y="600" as="targetPoint" />
            <Array as="points">
              <mxPoint x="900" y="660" />
            </Array>
          </mxGeometry>
        </mxCell>
        <mxCell id="Xw53oJ9WX84hQ0q4KHC2-124" value="ALU" style="shape=step;perimeter=stepPerimeter;whiteSpace=wrap;html=1;fixedSize=1;" vertex="1" parent="1">
          <mxGeometry x="1020" y="410" width="120" height="201.56" as="geometry" />
        </mxCell>
        <mxCell id="Xw53oJ9WX84hQ0q4KHC2-125" value="" style="endArrow=none;html=1;rounded=0;exitX=0.972;exitY=0.547;exitDx=0;exitDy=0;exitPerimeter=0;endFill=0;" edge="1" parent="1">
          <mxGeometry width="50" height="50" relative="1" as="geometry">
            <mxPoint x="1139.9999999999998" y="510.85332000000005" as="sourcePoint" />
            <mxPoint x="1830" y="511" as="targetPoint" />
          </mxGeometry>
        </mxCell>
        <mxCell id="Xw53oJ9WX84hQ0q4KHC2-129" value="" style="whiteSpace=wrap;html=1;aspect=fixed;" vertex="1" parent="1">
          <mxGeometry x="1510" y="690" width="70" height="70" as="geometry" />
        </mxCell>
        <mxCell id="Xw53oJ9WX84hQ0q4KHC2-130" value="" style="triangle;whiteSpace=wrap;html=1;rotation=90;" vertex="1" parent="1">
          <mxGeometry x="1525.3200000000002" y="690" width="8.12" height="8.75" as="geometry" />
        </mxCell>
        <mxCell id="Xw53oJ9WX84hQ0q4KHC2-131" value="" style="whiteSpace=wrap;html=1;aspect=fixed;" vertex="1" parent="1">
          <mxGeometry x="1510" y="475.94" width="70" height="70" as="geometry" />
        </mxCell>
        <mxCell id="Xw53oJ9WX84hQ0q4KHC2-132" value="" style="triangle;whiteSpace=wrap;html=1;rotation=90;" vertex="1" parent="1">
          <mxGeometry x="1525.3200000000002" y="475.63000000000005" width="8.12" height="8.75" as="geometry" />
        </mxCell>
        <mxCell id="Xw53oJ9WX84hQ0q4KHC2-133" value="&lt;font style=&quot;font-size: 19px;&quot;&gt;+&lt;/font&gt;" style="shape=step;perimeter=stepPerimeter;whiteSpace=wrap;html=1;fixedSize=1;rotation=-180;" vertex="1" parent="1">
          <mxGeometry x="1200" y="740" width="80" height="80" as="geometry" />
        </mxCell>
        <mxCell id="Xw53oJ9WX84hQ0q4KHC2-134" value="&lt;font style=&quot;font-size: 23px;&quot;&gt;+&lt;/font&gt;" style="shape=step;perimeter=stepPerimeter;whiteSpace=wrap;html=1;fixedSize=1;rotation=-180;" vertex="1" parent="1">
          <mxGeometry x="1200" y="880" width="80" height="80" as="geometry" />
        </mxCell>
        <mxCell id="Xw53oJ9WX84hQ0q4KHC2-135" value="" style="endArrow=classic;html=1;rounded=0;" edge="1" parent="1">
          <mxGeometry width="50" height="50" relative="1" as="geometry">
            <mxPoint x="1320" y="940" as="sourcePoint" />
            <mxPoint x="1270" y="940" as="targetPoint" />
          </mxGeometry>
        </mxCell>
        <mxCell id="Xw53oJ9WX84hQ0q4KHC2-136" value="4" style="endArrow=classic;html=1;rounded=0;fontSize=20;" edge="1" parent="1">
          <mxGeometry x="-1" y="-10" width="50" height="50" relative="1" as="geometry">
            <mxPoint x="1320" y="900" as="sourcePoint" />
            <mxPoint x="1270" y="900" as="targetPoint" />
            <Array as="points">
              <mxPoint x="1270" y="900" />
            </Array>
            <mxPoint x="10" y="10" as="offset" />
          </mxGeometry>
        </mxCell>
        <mxCell id="Xw53oJ9WX84hQ0q4KHC2-137" value="" style="endArrow=classic;html=1;rounded=0;" edge="1" parent="1">
          <mxGeometry width="50" height="50" relative="1" as="geometry">
            <mxPoint x="1320" y="796" as="sourcePoint" />
            <mxPoint x="1270" y="796" as="targetPoint" />
          </mxGeometry>
        </mxCell>
        <mxCell id="Xw53oJ9WX84hQ0q4KHC2-138" value="" style="endArrow=classic;html=1;rounded=0;" edge="1" parent="1">
          <mxGeometry width="50" height="50" relative="1" as="geometry">
            <mxPoint x="1320" y="759.52" as="sourcePoint" />
            <mxPoint x="1270" y="759.52" as="targetPoint" />
          </mxGeometry>
        </mxCell>
        <mxCell id="Xw53oJ9WX84hQ0q4KHC2-140" value="" style="endArrow=none;html=1;rounded=0;" edge="1" parent="1">
          <mxGeometry width="50" height="50" relative="1" as="geometry">
            <mxPoint x="1320" y="759.21" as="sourcePoint" />
            <mxPoint x="1320" y="760" as="targetPoint" />
          </mxGeometry>
        </mxCell>
        <mxCell id="Xw53oJ9WX84hQ0q4KHC2-141" value="" style="endArrow=none;html=1;rounded=0;" edge="1" parent="1">
          <mxGeometry width="50" height="50" relative="1" as="geometry">
            <mxPoint x="1320" y="1000" as="sourcePoint" />
            <mxPoint x="1320" y="940" as="targetPoint" />
          </mxGeometry>
        </mxCell>
        <mxCell id="Xw53oJ9WX84hQ0q4KHC2-144" value="" style="endArrow=none;html=1;rounded=0;" edge="1" parent="1">
          <mxGeometry width="50" height="50" relative="1" as="geometry">
            <mxPoint x="1320" y="1000.31" as="sourcePoint" />
            <mxPoint x="1390" y="1000" as="targetPoint" />
          </mxGeometry>
        </mxCell>
        <mxCell id="Xw53oJ9WX84hQ0q4KHC2-147" value="Decode" style="text;html=1;strokeColor=#ff0000;fillColor=none;align=center;verticalAlign=middle;whiteSpace=wrap;rounded=0;fontSize=24;fontStyle=1;" vertex="1" parent="1">
          <mxGeometry x="310" y="1099" width="170" height="70" as="geometry" />
        </mxCell>
        <mxCell id="Xw53oJ9WX84hQ0q4KHC2-148" value="Excute" style="text;html=1;strokeColor=#ff0000;fillColor=none;align=center;verticalAlign=middle;whiteSpace=wrap;rounded=0;fontSize=24;fontStyle=1;" vertex="1" parent="1">
          <mxGeometry x="1190" y="1120" width="170" height="70" as="geometry" />
        </mxCell>
        <mxCell id="Xw53oJ9WX84hQ0q4KHC2-150" value="WE" style="endArrow=none;html=1;rounded=0;fontSize=17;" edge="1" parent="1">
          <mxGeometry x="NaN" y="50" width="50" height="50" relative="1" as="geometry">
            <mxPoint x="590" y="340" as="sourcePoint" />
            <mxPoint x="590" y="340" as="targetPoint" />
            <mxPoint x="-30" y="40" as="offset" />
          </mxGeometry>
        </mxCell>
        <mxCell id="Xw53oJ9WX84hQ0q4KHC2-151" value="&lt;font style=&quot;font-size: 18px;&quot;&gt;branch&lt;/font&gt;" style="endArrow=classic;html=1;rounded=0;entryX=0.75;entryY=0;entryDx=0;entryDy=0;exitX=0.399;exitY=1.043;exitDx=0;exitDy=0;exitPerimeter=0;" edge="1" parent="1" source="Xw53oJ9WX84hQ0q4KHC2-76" target="Xw53oJ9WX84hQ0q4KHC2-78">
          <mxGeometry x="-1" y="-23" width="50" height="50" relative="1" as="geometry">
            <mxPoint x="640" y="270" as="sourcePoint" />
            <mxPoint x="690" y="220" as="targetPoint" />
            <mxPoint x="23" y="-23" as="offset" />
          </mxGeometry>
        </mxCell>
        <mxCell id="Xw53oJ9WX84hQ0q4KHC2-152" value="" style="endArrow=classic;html=1;rounded=0;entryX=0.451;entryY=0.003;entryDx=0;entryDy=0;entryPerimeter=0;" edge="1" parent="1" target="Xw53oJ9WX84hQ0q4KHC2-63">
          <mxGeometry width="50" height="50" relative="1" as="geometry">
            <mxPoint x="1241" y="120" as="sourcePoint" />
            <mxPoint x="4241.666666666667" y="120" as="targetPoint" />
            <Array as="points">
              <mxPoint x="4200" y="120" />
            </Array>
          </mxGeometry>
        </mxCell>
        <mxCell id="Xw53oJ9WX84hQ0q4KHC2-153" value="" style="triangle;whiteSpace=wrap;html=1;" vertex="1" parent="1">
          <mxGeometry x="4120" y="329.69" width="20" height="30.31" as="geometry" />
        </mxCell>
        <mxCell id="Xw53oJ9WX84hQ0q4KHC2-154" value="" style="endArrow=classic;html=1;rounded=0;exitX=0.989;exitY=0.825;exitDx=0;exitDy=0;exitPerimeter=0;" edge="1" parent="1" source="Xw53oJ9WX84hQ0q4KHC2-63">
          <mxGeometry width="50" height="50" relative="1" as="geometry">
            <mxPoint x="4290" y="640" as="sourcePoint" />
            <mxPoint x="3440" y="560" as="targetPoint" />
            <Array as="points">
              <mxPoint x="4440" y="640" />
              <mxPoint x="4440" y="840" />
              <mxPoint x="3680" y="840" />
              <mxPoint x="3680" y="560" />
            </Array>
          </mxGeometry>
        </mxCell>
        <mxCell id="Xw53oJ9WX84hQ0q4KHC2-156" value="" style="whiteSpace=wrap;html=1;aspect=fixed;" vertex="1" parent="1">
          <mxGeometry x="4340" y="600.31" width="70" height="70" as="geometry" />
        </mxCell>
        <mxCell id="Xw53oJ9WX84hQ0q4KHC2-157" value="" style="triangle;whiteSpace=wrap;html=1;rotation=90;" vertex="1" parent="1">
          <mxGeometry x="4355.32" y="600.31" width="8.12" height="8.75" as="geometry" />
        </mxCell>
        <mxCell id="Xw53oJ9WX84hQ0q4KHC2-158" value="" style="shape=trapezoid;perimeter=trapezoidPerimeter;whiteSpace=wrap;html=1;fixedSize=1;rotation=-90;" vertex="1" parent="1">
          <mxGeometry x="3275" y="585" width="270" height="60" as="geometry" />
        </mxCell>
        <mxCell id="Xw53oJ9WX84hQ0q4KHC2-159" value="" style="endArrow=classic;html=1;rounded=0;" edge="1" parent="1">
          <mxGeometry width="50" height="50" relative="1" as="geometry">
            <mxPoint x="3600" y="600" as="sourcePoint" />
            <mxPoint x="3440" y="600.31" as="targetPoint" />
          </mxGeometry>
        </mxCell>
        <mxCell id="Xw53oJ9WX84hQ0q4KHC2-160" value="" style="endArrow=none;html=1;rounded=0;" edge="1" parent="1">
          <mxGeometry width="50" height="50" relative="1" as="geometry">
            <mxPoint x="3600" y="920" as="sourcePoint" />
            <mxPoint x="3600" y="600.31" as="targetPoint" />
          </mxGeometry>
        </mxCell>
        <mxCell id="Xw53oJ9WX84hQ0q4KHC2-161" value="" style="endArrow=none;html=1;rounded=0;" edge="1" parent="1">
          <mxGeometry width="50" height="50" relative="1" as="geometry">
            <mxPoint x="3240" y="920" as="sourcePoint" />
            <mxPoint x="3600" y="920" as="targetPoint" />
          </mxGeometry>
        </mxCell>
        <mxCell id="Xw53oJ9WX84hQ0q4KHC2-162" value="" style="endArrow=none;html=1;rounded=0;" edge="1" parent="1">
          <mxGeometry width="50" height="50" relative="1" as="geometry">
            <mxPoint x="3240" y="920" as="sourcePoint" />
            <mxPoint x="3240" y="580" as="targetPoint" />
          </mxGeometry>
        </mxCell>
        <mxCell id="Xw53oJ9WX84hQ0q4KHC2-163" value="" style="endArrow=classic;html=1;rounded=0;" edge="1" parent="1">
          <mxGeometry width="50" height="50" relative="1" as="geometry">
            <mxPoint x="3560" y="645" as="sourcePoint" />
            <mxPoint x="3440" y="645" as="targetPoint" />
          </mxGeometry>
        </mxCell>
        <mxCell id="Xw53oJ9WX84hQ0q4KHC2-164" value="" style="endArrow=none;html=1;rounded=0;" edge="1" parent="1">
          <mxGeometry width="50" height="50" relative="1" as="geometry">
            <mxPoint x="3560" y="880" as="sourcePoint" />
            <mxPoint x="3560" y="645" as="targetPoint" />
          </mxGeometry>
        </mxCell>
        <mxCell id="Xw53oJ9WX84hQ0q4KHC2-165" value="" style="endArrow=none;html=1;rounded=0;" edge="1" parent="1">
          <mxGeometry width="50" height="50" relative="1" as="geometry">
            <mxPoint x="3275.744680851064" y="880" as="sourcePoint" />
            <mxPoint x="3560" y="880" as="targetPoint" />
          </mxGeometry>
        </mxCell>
        <mxCell id="Xw53oJ9WX84hQ0q4KHC2-167" value="" style="endArrow=none;html=1;rounded=0;" edge="1" parent="1">
          <mxGeometry width="50" height="50" relative="1" as="geometry">
            <mxPoint x="1080" y="1080" as="sourcePoint" />
            <mxPoint x="1080" y="960" as="targetPoint" />
          </mxGeometry>
        </mxCell>
        <mxCell id="Xw53oJ9WX84hQ0q4KHC2-168" value="" style="endArrow=none;html=1;rounded=0;" edge="1" parent="1">
          <mxGeometry width="50" height="50" relative="1" as="geometry">
            <mxPoint x="1390" y="1080" as="sourcePoint" />
            <mxPoint x="1080" y="1080" as="targetPoint" />
          </mxGeometry>
        </mxCell>
        <mxCell id="Xw53oJ9WX84hQ0q4KHC2-169" value="" style="endArrow=none;html=1;rounded=0;" edge="1" parent="1">
          <mxGeometry width="50" height="50" relative="1" as="geometry">
            <mxPoint x="1390" y="1080" as="sourcePoint" />
            <mxPoint x="1390" y="1000" as="targetPoint" />
          </mxGeometry>
        </mxCell>
        <mxCell id="Xw53oJ9WX84hQ0q4KHC2-172" value="" style="endArrow=none;html=1;rounded=0;" edge="1" parent="1">
          <mxGeometry width="50" height="50" relative="1" as="geometry">
            <mxPoint x="1440" y="760" as="sourcePoint" />
            <mxPoint x="1440" y="760" as="targetPoint" />
          </mxGeometry>
        </mxCell>
        <mxCell id="Xw53oJ9WX84hQ0q4KHC2-173" value="0&lt;div&gt;1&lt;/div&gt;" style="shape=trapezoid;perimeter=trapezoidPerimeter;whiteSpace=wrap;html=1;fixedSize=1;rotation=-90;textDirection=vertical-lr;" vertex="1" parent="1">
          <mxGeometry x="1290" y="791" width="80" height="29" as="geometry" />
        </mxCell>
        <mxCell id="Xw53oJ9WX84hQ0q4KHC2-176" value="" style="endArrow=classic;html=1;rounded=0;" edge="1" parent="1">
          <mxGeometry width="50" height="50" relative="1" as="geometry">
            <mxPoint x="1400" y="824" as="sourcePoint" />
            <mxPoint x="1345" y="824" as="targetPoint" />
          </mxGeometry>
        </mxCell>
        <mxCell id="Xw53oJ9WX84hQ0q4KHC2-177" value="" style="endArrow=classic;html=1;rounded=0;" edge="1" parent="1">
          <mxGeometry width="50" height="50" relative="1" as="geometry">
            <mxPoint x="1400" y="780" as="sourcePoint" />
            <mxPoint x="1345" y="779.75" as="targetPoint" />
          </mxGeometry>
        </mxCell>
        <mxCell id="Xw53oJ9WX84hQ0q4KHC2-178" value="" style="endArrow=none;html=1;rounded=0;" edge="1" parent="1">
          <mxGeometry width="50" height="50" relative="1" as="geometry">
            <mxPoint x="1400" y="860" as="sourcePoint" />
            <mxPoint x="1400" y="824" as="targetPoint" />
          </mxGeometry>
        </mxCell>
        <mxCell id="Xw53oJ9WX84hQ0q4KHC2-179" value="" style="endArrow=none;html=1;rounded=0;" edge="1" parent="1">
          <mxGeometry width="50" height="50" relative="1" as="geometry">
            <mxPoint x="1400" y="781" as="sourcePoint" />
            <mxPoint x="1400" y="600" as="targetPoint" />
          </mxGeometry>
        </mxCell>
        <mxCell id="Xw53oJ9WX84hQ0q4KHC2-180" value="" style="endArrow=none;html=1;rounded=0;" edge="1" parent="1">
          <mxGeometry width="50" height="50" relative="1" as="geometry">
            <mxPoint x="1200" y="600" as="sourcePoint" />
            <mxPoint x="1400" y="600.31" as="targetPoint" />
          </mxGeometry>
        </mxCell>
        <mxCell id="Xw53oJ9WX84hQ0q4KHC2-181" value="" style="endArrow=none;html=1;rounded=0;endFill=0;" edge="1" parent="1">
          <mxGeometry width="50" height="50" relative="1" as="geometry">
            <mxPoint x="1200" y="600.31" as="sourcePoint" />
            <mxPoint x="1200" y="320" as="targetPoint" />
          </mxGeometry>
        </mxCell>
        <mxCell id="Xw53oJ9WX84hQ0q4KHC2-182" value="" style="endArrow=none;html=1;rounded=0;" edge="1" parent="1">
          <mxGeometry width="50" height="50" relative="1" as="geometry">
            <mxPoint x="960" y="320" as="sourcePoint" />
            <mxPoint x="1200" y="319.85" as="targetPoint" />
          </mxGeometry>
        </mxCell>
        <mxCell id="Xw53oJ9WX84hQ0q4KHC2-183" value="" style="endArrow=none;html=1;rounded=0;" edge="1" parent="1" source="Xw53oJ9WX84hQ0q4KHC2-184">
          <mxGeometry width="50" height="50" relative="1" as="geometry">
            <mxPoint x="960" y="440" as="sourcePoint" />
            <mxPoint x="960" y="319.85" as="targetPoint" />
          </mxGeometry>
        </mxCell>
        <mxCell id="Xw53oJ9WX84hQ0q4KHC2-186" value="" style="endArrow=none;html=1;rounded=0;" edge="1" parent="1" target="Xw53oJ9WX84hQ0q4KHC2-184">
          <mxGeometry width="50" height="50" relative="1" as="geometry">
            <mxPoint x="960" y="440" as="sourcePoint" />
            <mxPoint x="960" y="319.85" as="targetPoint" />
          </mxGeometry>
        </mxCell>
        <mxCell id="Xw53oJ9WX84hQ0q4KHC2-184" value="" style="shape=waypoint;sketch=0;fillStyle=solid;size=6;pointerEvents=1;points=[];fillColor=none;resizable=0;rotatable=0;perimeter=centerPerimeter;snapToPoint=1;" vertex="1" parent="1">
          <mxGeometry x="950" y="430" width="20" height="20" as="geometry" />
        </mxCell>
        <mxCell id="Xw53oJ9WX84hQ0q4KHC2-188" value="" style="shape=waypoint;sketch=0;fillStyle=solid;size=6;pointerEvents=1;points=[];fillColor=none;resizable=0;rotatable=0;perimeter=centerPerimeter;snapToPoint=1;" vertex="1" parent="1">
          <mxGeometry x="970" y="920" width="20" height="20" as="geometry" />
        </mxCell>
        <mxCell id="Xw53oJ9WX84hQ0q4KHC2-194" value="" style="endArrow=none;html=1;strokeColor=#ff0000;strokeWidth=4;" edge="1" parent="1">
          <mxGeometry width="50" height="50" relative="1" as="geometry">
            <mxPoint x="1630" y="190" as="sourcePoint" />
            <mxPoint x="1630" y="1030" as="targetPoint" />
          </mxGeometry>
        </mxCell>
        <mxCell id="Xw53oJ9WX84hQ0q4KHC2-197" value="" style="endArrow=none;html=1;rounded=0;" edge="1" parent="1">
          <mxGeometry width="50" height="50" relative="1" as="geometry">
            <mxPoint x="1320" y="760" as="sourcePoint" />
            <mxPoint x="1440" y="760" as="targetPoint" />
          </mxGeometry>
        </mxCell>
        <mxCell id="Xw53oJ9WX84hQ0q4KHC2-202" value="" style="endArrow=none;html=1;rounded=0;" edge="1" parent="1" target="Xw53oJ9WX84hQ0q4KHC2-199">
          <mxGeometry width="50" height="50" relative="1" as="geometry">
            <mxPoint x="320" y="720" as="sourcePoint" />
            <mxPoint x="1730" y="720" as="targetPoint" />
          </mxGeometry>
        </mxCell>
        <mxCell id="Xw53oJ9WX84hQ0q4KHC2-199" value="&lt;font style=&quot;font-size: 18px;&quot;&gt;imm&lt;/font&gt;&lt;div&gt;&lt;font style=&quot;font-size: 18px;&quot;&gt;extend&lt;/font&gt;&lt;/div&gt;" style="shape=parallelogram;perimeter=parallelogramPerimeter;whiteSpace=wrap;html=1;fixedSize=1;" vertex="1" parent="1">
          <mxGeometry x="480.0029411764708" y="690" width="120" height="60" as="geometry" />
        </mxCell>
        <mxCell id="Xw53oJ9WX84hQ0q4KHC2-206" value="" style="endArrow=none;html=1;rounded=0;" edge="1" parent="1" source="Xw53oJ9WX84hQ0q4KHC2-199" target="Xw53oJ9WX84hQ0q4KHC2-203">
          <mxGeometry width="50" height="50" relative="1" as="geometry">
            <mxPoint x="590" y="720" as="sourcePoint" />
            <mxPoint x="1730" y="720" as="targetPoint" />
          </mxGeometry>
        </mxCell>
        <mxCell id="Xw53oJ9WX84hQ0q4KHC2-203" value="" style="whiteSpace=wrap;html=1;aspect=fixed;" vertex="1" parent="1">
          <mxGeometry x="810" y="685" width="70" height="70" as="geometry" />
        </mxCell>
        <mxCell id="Xw53oJ9WX84hQ0q4KHC2-204" value="" style="triangle;whiteSpace=wrap;html=1;rotation=90;" vertex="1" parent="1">
          <mxGeometry x="825.32" y="685" width="8.12" height="8.75" as="geometry" />
        </mxCell>
      </root>
    </mxGraphModel>
  </diagram>
</mxfile>
